<svg width="25" height="24" viewBox="0 0 25 24" fill="none" xmlns="http://www.w3.org/2000/svg">
<g id="Content">
<path d="M1.25 12C1.25 5.7868 6.2868 0.75 12.5 0.75C18.7132 0.75 23.75 5.7868 23.75 12C23.75 18.2132 18.7132 23.25 12.5 23.25C6.2868 23.25 1.25 18.2132 1.25 12Z" fill="#4AA16C"/>
<path d="M1.25 12C1.25 5.7868 6.2868 0.75 12.5 0.75C18.7132 0.75 23.75 5.7868 23.75 12C23.75 18.2132 18.7132 23.25 12.5 23.25C6.2868 23.25 1.25 18.2132 1.25 12Z" stroke="#4AA16C" stroke-width="1.5"/>
<path id="Tick" fill-rule="evenodd" clip-rule="evenodd" d="M17.5965 7.39016L10.4365 14.3002L8.5365 12.2702C8.1865 11.9402 7.6365 11.9202 7.2365 12.2002C6.8465 12.4902 6.7365 13.0002 6.9765 13.4102L9.2265 17.0702C9.4465 17.4102 9.8265 17.6202 10.2565 17.6202C10.6665 17.6202 11.0565 17.4102 11.2765 17.0702C11.6365 16.6002 18.5065 8.41016 18.5065 8.41016C19.4065 7.49016 18.3165 6.68016 17.5965 7.38016V7.39016Z" fill="white"/>
</g>
</svg>
