<svg width="20" height="20" viewBox="0 0 20 20" fill="none" xmlns="http://www.w3.org/2000/svg">
<g id="heroicons-solid/arrows-right-left">
<path id="Vector (Stroke)" fill-rule="evenodd" clip-rule="evenodd" d="M13.3081 2.05806C13.5521 1.81398 13.9479 1.81398 14.1919 2.05806L17.9419 5.80806C18.0592 5.92527 18.125 6.08424 18.125 6.25C18.125 6.41576 18.0592 6.57473 17.9419 6.69194L14.1919 10.4419C13.9479 10.686 13.5521 10.686 13.3081 10.4419C13.064 10.1979 13.064 9.80214 13.3081 9.55806L15.9911 6.875L6.25 6.875C5.90482 6.875 5.625 6.59518 5.625 6.25C5.625 5.90482 5.90482 5.625 6.25 5.625L15.9911 5.625L13.3081 2.94194C13.064 2.69786 13.064 2.30214 13.3081 2.05806ZM6.69194 9.55806C6.93602 9.80214 6.93602 10.1979 6.69194 10.4419L4.00888 13.125H13.75C14.0952 13.125 14.375 13.4048 14.375 13.75C14.375 14.0952 14.0952 14.375 13.75 14.375H4.00888L6.69194 17.0581C6.93602 17.3021 6.93602 17.6979 6.69194 17.9419C6.44786 18.186 6.05214 18.186 5.80806 17.9419L2.05806 14.1919C1.81398 13.9479 1.81398 13.5521 2.05806 13.3081L5.80806 9.55806C6.05214 9.31398 6.44786 9.31398 6.69194 9.55806Z" fill="#A79DEE"/>
</g>
</svg>
