<svg width="20" height="20" viewBox="0 0 20 20" fill="none" xmlns="http://www.w3.org/2000/svg">
<g id="heroicons-solid/code-bracket">
<path id="Vector (Stroke)" fill-rule="evenodd" clip-rule="evenodd" d="M12.0394 2.52194C12.3725 2.61276 12.5688 2.95635 12.478 3.28936L8.72798 17.0394C8.63716 17.3724 8.29357 17.5687 7.96055 17.4779C7.62754 17.3871 7.4312 17.0435 7.52202 16.7105L11.272 2.96046C11.3628 2.62745 11.7064 2.43111 12.0394 2.52194ZM13.9331 5.18297C14.1771 4.93889 14.5729 4.93889 14.8169 5.18297L19.1919 9.55797C19.436 9.80205 19.436 10.1978 19.1919 10.4419L14.8169 14.8169C14.5729 15.0609 14.1771 15.0609 13.9331 14.8169C13.689 14.5728 13.689 14.177 13.9331 13.933L17.8661 9.99991L13.9331 6.06685C13.689 5.82278 13.689 5.42705 13.9331 5.18297ZM6.06694 5.18297C6.31102 5.42705 6.31102 5.82278 6.06694 6.06685L2.13388 9.99991L6.06694 13.933C6.31102 14.177 6.31102 14.5728 6.06694 14.8169C5.82286 15.0609 5.42714 15.0609 5.18306 14.8169L0.808058 10.4419C0.563981 10.1978 0.563981 9.80205 0.808058 9.55797L5.18306 5.18297C5.42714 4.93889 5.82286 4.93889 6.06694 5.18297Z" fill="#A79DEE"/>
</g>
</svg>
