<svg width="16" height="16" viewBox="0 0 16 16" fill="none" xmlns="http://www.w3.org/2000/svg">
<g id="heroicons-solid/exclamation-triangle">
<path id="Subtract" fill-rule="evenodd" clip-rule="evenodd" d="M6.26749 2.00226C7.03715 0.668191 8.96257 0.66819 9.73223 2.00226L14.6351 10.5006C15.4043 11.8339 14.4421 13.5 12.9027 13.5H3.09698C1.55766 13.5 0.595374 11.8339 1.3646 10.5006L6.26749 2.00226ZM8 5.5C8.27614 5.5 8.5 5.72386 8.5 6V8.5C8.5 8.77614 8.27614 9 8 9C7.72386 9 7.5 8.77614 7.5 8.5V6C7.5 5.72386 7.72386 5.5 8 5.5ZM8 11C8.27614 11 8.5 10.7761 8.5 10.5C8.5 10.2239 8.27614 10 8 10C7.72386 10 7.5 10.2239 7.5 10.5C7.5 10.7761 7.72386 11 8 11Z" fill="#FFD27A"/>
</g>
</svg>
