<svg width="16" height="16" viewBox="0 0 16 16" fill="none" xmlns="http://www.w3.org/2000/svg">
    <g id="Buy, Sell &#38; Trade Ethereum and Other Top Tokens on Uniswap-12 2">
        <path id="Vector" fill-rule="evenodd" clip-rule="evenodd"
            d="M10.2052 1.18551C10.4709 0.93066 10.893 0.939487 11.1478 1.20522L13.9792 4.15755C14.1618 4.31649 14.3152 4.50803 14.4306 4.72309C14.5654 4.95448 14.6666 5.23213 14.6666 5.55132V11.1341C14.6666 12.1656 13.8303 13 12.8 13C11.769 13 10.9333 12.1643 10.9333 11.1333V9.59993C10.9333 9.23173 10.6348 8.93327 10.2666 8.93327H9.33331V13.6667C9.33331 13.7127 9.33098 13.7581 9.32645 13.803C9.30098 14.0533 9.20631 14.2833 9.06178 14.4732C8.81825 14.7933 8.43325 15 7.99998 15H2.66665C2.20641 15 1.80063 14.7668 1.56103 14.4121C1.41726 14.1993 1.33332 13.9428 1.33331 13.6667V3.6666C1.33331 2.56203 2.22875 1.6666 3.33331 1.6666H7.33331C8.43791 1.6666 9.33331 2.56203 9.33331 3.6666V7.59993H10.2666C11.3712 7.59993 12.2666 8.4954 12.2666 9.59993V11.1333C12.2666 11.4279 12.5054 11.6667 12.8 11.6667C13.0951 11.6667 13.3333 11.4281 13.3333 11.1341V7.5528C13.1248 7.62647 12.9004 7.6666 12.6666 7.6666C11.562 7.6666 10.6666 6.7712 10.6666 5.6666C10.6666 4.85901 11.1453 4.16321 11.8344 3.84745L10.1855 2.12811C9.93065 1.86238 9.93945 1.44037 10.2052 1.18551ZM13.0732 5.13821C12.9606 5.0515 12.8197 4.99993 12.6666 4.99993C12.2984 4.99993 12 5.29841 12 5.6666C12 6.03479 12.2984 6.33327 12.6666 6.33327C13.0348 6.33327 13.3333 6.03479 13.3333 5.6666C13.3333 5.56056 13.3086 5.4603 13.2645 5.37129C13.2202 5.30109 13.1566 5.22373 13.0732 5.13821ZM3.47713 3.14975C3.10893 3.14975 2.81046 3.44823 2.81046 3.81642V6.48309C2.81046 6.85127 3.10893 7.14973 3.47713 7.14973H7.14378C7.51198 7.14973 7.81045 6.85127 7.81045 6.48309V3.81642C7.81045 3.44823 7.51198 3.14975 7.14378 3.14975H3.47713Z"
            fill="#85888E" />
    </g>
</svg>