<svg width="14" height="14" viewBox="0 0 14 14" fill="none" xmlns="http://www.w3.org/2000/svg">
<g id="heroicons-mini/arrow-top-right-on-square">
<g id="Vector">
<path fill-rule="evenodd" clip-rule="evenodd" d="M2.97502 3.8499C2.68508 3.8499 2.45002 4.08495 2.45002 4.3749V10.3249C2.45002 10.6149 2.68508 10.8499 2.97502 10.8499H8.92502C9.21497 10.8499 9.45002 10.6149 9.45002 10.3249V7.5249C9.45002 7.23495 9.68508 6.9999 9.97503 6.9999C10.265 6.9999 10.5 7.23495 10.5 7.5249V10.3249C10.5 11.1948 9.79487 11.8999 8.92502 11.8999H2.97502C2.10518 11.8999 1.40002 11.1948 1.40002 10.3249V4.3749C1.40002 3.50505 2.10518 2.7999 2.97502 2.7999H6.47502C6.76497 2.7999 7.00002 3.03495 7.00002 3.3249C7.00002 3.61485 6.76497 3.8499 6.47502 3.8499H2.97502Z" fill="#A79DEE"/>
<path fill-rule="evenodd" clip-rule="evenodd" d="M4.33572 8.92713C4.53025 9.14214 4.86225 9.15874 5.07725 8.96421L11.55 3.10789V5.0749C11.55 5.36485 11.7851 5.5999 12.075 5.5999C12.365 5.5999 12.6 5.36485 12.6 5.0749V1.9249C12.6 1.63495 12.365 1.3999 12.075 1.3999H8.92502C8.63508 1.3999 8.40002 1.63495 8.40002 1.9249C8.40002 2.21485 8.63508 2.4499 8.92502 2.4499H10.7122L4.3728 8.1856C4.15779 8.38013 4.14119 8.71212 4.33572 8.92713Z" fill="#A79DEE"/>
</g>
</g>
</svg>
