<svg width="24" height="24" viewBox="0 0 24 24" fill="none" xmlns="http://www.w3.org/2000/svg">
<g id="611fd32ddac3c1856c306c37_optimism logo icon 1" clip-path="url(#clip0_3221_2975)">
<path id="Vector" d="M12 24C18.6274 24 24 18.6274 24 12C24 5.37258 18.6274 0 12 0C5.37258 0 0 5.37258 0 12C0 18.6274 5.37258 24 12 24Z" fill="#FF0420"/>
<path id="Vector_2" d="M8.7033 15.36C7.97951 15.36 7.38652 15.1858 6.92423 14.8373C6.46809 14.4827 6.23999 13.9787 6.23999 13.3253C6.23999 13.1884 6.25521 13.0204 6.28559 12.8213C6.36469 12.3734 6.47721 11.8351 6.62317 11.2067C7.03674 9.49557 8.10421 8.64001 9.82549 8.64001C10.2938 8.64001 10.7135 8.72089 11.0845 8.8827C11.4555 9.03822 11.7475 9.27467 11.9603 9.592C12.1732 9.90313 12.2797 10.2765 12.2797 10.712C12.2797 10.8427 12.2645 11.0076 12.234 11.2067C12.1428 11.7604 12.0333 12.2987 11.9056 12.8213C11.6927 13.6738 11.3248 14.3116 10.8017 14.7347C10.2786 15.1516 9.57916 15.36 8.7033 15.36ZM8.83103 14.016C9.17164 14.016 9.46055 13.9133 9.69777 13.708C9.94103 13.5027 10.1144 13.1884 10.2178 12.7653C10.3577 12.1804 10.4641 11.6703 10.5371 11.2347C10.5614 11.104 10.5736 10.9702 10.5736 10.8333C10.5736 10.2671 10.2847 9.98401 9.70689 9.98401C9.36628 9.98401 9.07434 10.0867 8.83103 10.292C8.59381 10.4973 8.42351 10.8116 8.32012 11.2347C8.21063 11.6516 8.10114 12.1618 7.9917 12.7653C7.96737 12.8898 7.95517 13.0204 7.95517 13.1573C7.95517 13.7298 8.24711 14.016 8.83103 14.016Z" fill="white"/>
<path id="Vector_3" d="M12.6986 15.2667C12.6317 15.2667 12.58 15.2449 12.5434 15.2013C12.513 15.1516 12.5039 15.0956 12.5161 15.0333L13.7751 8.96671C13.7873 8.89826 13.8207 8.84225 13.8755 8.79871C13.9302 8.75513 13.988 8.73334 14.0488 8.73334H16.4756C17.1508 8.73334 17.692 8.87647 18.0996 9.1627C18.5132 9.44892 18.72 9.86268 18.72 10.404C18.72 10.5596 18.7017 10.7214 18.6652 10.8894C18.5132 11.6049 18.206 12.1338 17.7437 12.476C17.2876 12.8182 16.6611 12.9894 15.8644 12.9894H14.6327L14.213 15.0333C14.2009 15.1018 14.1674 15.1578 14.1126 15.2013C14.0579 15.2449 14.0001 15.2667 13.9393 15.2667H12.6986ZM15.9282 11.7014C16.1836 11.7014 16.4056 11.6298 16.5942 11.4867C16.7888 11.3436 16.9166 11.1382 16.9774 10.8707C16.9957 10.7649 17.0048 10.6716 17.0048 10.5907C17.0048 10.4103 16.9531 10.2734 16.8497 10.18C16.7463 10.0805 16.5699 10.0307 16.3205 10.0307H15.2257L14.879 11.7014H15.9282Z" fill="white"/>
</g>
<defs>
<clipPath id="clip0_3221_2975">
<rect width="24" height="24" fill="white"/>
</clipPath>
</defs>
</svg>
