<svg width="212" height="30" viewBox="0 0 212 30" fill="none" xmlns="http://www.w3.org/2000/svg">
<g id="Logo" clip-path="url(#clip0_2201_1605)">
<path id="Vector" d="M47.0028 17.208C47.0028 20.0127 44.7606 22.1409 40.8538 22.1409C36.9471 22.1409 34.6212 20.0127 34.416 16.8052H36.9243C37.0383 18.8498 38.338 20.1723 40.8006 20.1723C42.8452 20.1723 44.3653 19.207 44.3653 17.5501C44.3653 16.2047 43.4913 15.5283 41.6291 15.1254L39.2957 14.677C37.0307 14.2286 34.9633 13.0808 34.9633 10.3446C34.9633 7.60834 37.3423 5.58655 40.679 5.58655C44.0157 5.58655 46.5544 7.63114 46.7596 10.831H44.2513C44.1145 8.90046 42.7236 7.55513 40.7094 7.55513C38.6952 7.55513 37.4791 8.78645 37.4791 10.1774C37.4791 11.7051 38.8016 12.2372 40.3066 12.5564L42.6856 13.0276C45.4446 13.5901 46.9952 14.7986 46.9952 17.2004L47.0028 17.208ZM56.6557 17.0332V10.033H58.9207V21.9205H56.8153V20.0355C56.1845 21.2668 54.7935 22.1409 53.1822 22.1409C50.7803 22.1409 49.1234 20.7272 49.1234 17.6793V10.033H51.3884V17.2308C51.3884 19.2906 52.4221 20.1495 53.8966 20.1495C55.3712 20.1495 56.6557 18.8954 56.6557 17.0332ZM73.1948 15.9767C73.1948 19.5643 71.135 22.1409 67.9503 22.1409C66.339 22.1409 64.9709 21.3352 64.112 19.8987V26.2453H61.847V10.033H63.9524V12.2068C64.8037 10.679 66.263 9.80494 67.9427 9.80494C71.1046 9.80494 73.1872 12.3816 73.1872 15.9691L73.1948 15.9767ZM70.8386 15.9767C70.8386 13.3089 69.4249 11.8039 67.4715 11.8039C65.5181 11.8039 64.1044 13.3089 64.1044 15.9767C64.1044 18.6446 65.5637 20.1267 67.4715 20.1267C69.3793 20.1267 70.8386 18.6446 70.8386 15.9767ZM80.1571 22.1409C76.7292 22.1409 74.4186 19.6479 74.4186 15.9083C74.4186 12.3892 76.8204 9.80494 80.0963 9.80494C83.6382 9.80494 85.9944 12.678 85.5916 16.5316H76.7292C76.9116 18.9562 78.1201 20.3699 80.1191 20.3699C81.7988 20.3699 82.9694 19.4502 83.3494 17.8997H85.5916C85.0063 20.5447 82.9694 22.1409 80.1647 22.1409H80.1571ZM80.0431 11.5151C78.2265 11.5151 76.9952 12.8148 76.7444 15.0342H83.1822C83.0682 12.8376 81.8824 11.5151 80.0431 11.5151ZM90.0304 15.8399V21.9205H87.7654V10.033H89.8708V12.5412C90.6993 10.907 92.493 9.87335 94.4464 9.87335V12.2296C91.8926 12.0928 90.0304 13.2177 90.0304 15.8399ZM100.664 22.1637C97.4107 22.1637 95.1229 19.6099 95.1229 15.9767C95.1229 12.3436 97.4563 9.81254 100.664 9.81254C103.605 9.81254 105.733 11.7659 106.159 14.8594H103.78C103.537 12.9516 102.344 11.8115 100.687 11.8115C98.7332 11.8115 97.4563 13.4685 97.4563 15.9843C97.4563 18.5002 98.7332 20.1571 100.687 20.1571C102.366 20.1571 103.537 19.0322 103.803 17.1092H106.159C105.756 20.2483 103.643 22.1789 100.664 22.1789V22.1637ZM110.476 15.2166V21.9205H108.211V5.81457H110.476V11.9407C111.259 10.6638 112.475 9.81254 114.109 9.81254C116.557 9.81254 118.168 11.3859 118.168 14.2286V21.9205H115.903V14.9886C115.903 12.944 115.006 11.8039 113.327 11.8039C111.776 11.8039 110.476 13.1036 110.476 15.2166ZM128.156 21.9205V20.0811C127.418 21.4036 126.096 22.1409 124.34 22.1409C121.87 22.1409 120.258 20.7272 120.258 18.5534C120.258 16.2199 122.121 15.0114 125.663 15.0114C126.362 15.0114 126.917 15.0342 127.882 15.1482V14.2742C127.882 12.5716 126.962 11.6063 125.389 11.6063C123.732 11.6063 122.721 12.5944 122.653 14.2514H120.593C120.707 11.5835 122.615 9.81254 125.389 9.81254C128.33 9.81254 130.033 11.4695 130.033 14.297V21.9205H128.148H128.156ZM122.417 18.485C122.417 19.7163 123.337 20.5295 124.796 20.5295C126.704 20.5295 127.89 19.3438 127.89 17.5273V16.562C127.015 16.448 126.385 16.4252 125.807 16.4252C123.542 16.4252 122.417 17.1016 122.417 18.485ZM135.604 7.27391C135.604 8.12518 134.928 8.77885 133.97 8.77885C133.012 8.77885 132.313 8.12518 132.313 7.27391C132.313 6.42263 133.005 5.76897 133.97 5.76897C134.935 5.76897 135.604 6.39982 135.604 7.27391ZM135.11 21.9205H132.845V10.033H135.11V21.9205ZM140.294 15.2166V21.9205H138.029V10.033H140.134V12.0091C140.94 10.6866 142.285 9.81254 143.927 9.81254C146.374 9.81254 147.986 11.3859 147.986 14.2286V21.9205H145.721V14.9886C145.721 12.944 144.824 11.8039 143.144 11.8039C141.594 11.8039 140.294 13.1036 140.294 15.2166ZM161.492 17.4817C161.492 20.3319 159.432 21.9205 156.4 21.9205H151.087V5.81457H155.997C159.045 5.81457 160.793 7.29671 160.793 9.91895C160.793 11.5531 159.737 12.9896 158.034 13.5521C160.322 14.0461 161.485 15.5055 161.485 17.4741L161.492 17.4817ZM155.974 6.73425H152.136V13.1721H155.974C158.353 13.1721 159.721 11.9635 159.721 9.96456C159.721 7.96557 158.353 6.73425 155.974 6.73425ZM156.354 14.0689H152.136V21.0008H156.354C158.885 21.0008 160.436 19.7239 160.436 17.4817C160.436 15.2394 158.885 14.0689 156.354 14.0689ZM165.65 15.4143V21.9205H164.616V10.1698H165.604V12.9972C166.364 11.1579 168.097 9.94936 170.043 9.94936V11.0515C167.596 11.0287 165.65 12.868 165.65 15.4219V15.4143ZM173.365 7.43352C173.365 7.99597 172.939 8.42161 172.376 8.42161C171.814 8.42161 171.366 7.99597 171.366 7.43352C171.366 6.87107 171.791 6.51383 172.376 6.51383C172.962 6.51383 173.365 6.89387 173.365 7.43352ZM172.893 21.9205H171.86V10.1698H172.893V21.9205ZM175.356 16.0223C175.356 12.3664 177.378 9.94175 180.517 9.94175C182.402 9.94175 184.013 11.0667 184.781 12.9212V5.81457H185.815V21.9205H184.826V19.1842C184.044 21.0464 182.447 22.1485 180.517 22.1485C177.355 22.1485 175.356 19.7011 175.356 16.0223ZM176.412 16.0223C176.412 19.2982 178.024 21.2668 180.608 21.2668C183.192 21.2668 184.826 19.1842 184.826 15.9767C184.826 12.7692 183.078 10.8158 180.608 10.8158C178.138 10.8158 176.412 12.7692 176.412 16.0223ZM193.476 26.4961C190.535 26.4961 188.741 24.9684 188.612 22.3917H189.6C189.759 24.4971 191.127 25.6448 193.461 25.6448C195.992 25.6448 197.322 24.2995 197.322 21.7837V19.0702C196.608 20.8868 195.103 21.9661 193.24 21.9661C190.261 21.9661 188.308 19.5871 188.308 15.9311C188.308 12.2752 190.261 9.94175 193.24 9.94175C195.08 9.94175 196.63 11.0819 197.368 12.9668V10.1622H198.356V21.7609C198.356 24.7631 196.585 26.4961 193.491 26.4961H193.476ZM189.349 15.9311C189.349 19.1386 190.854 21.0692 193.339 21.0692C195.825 21.0692 197.352 19.093 197.352 16.0679C197.352 12.8604 195.779 10.8234 193.339 10.8234C190.899 10.8234 189.349 12.754 189.349 15.9387V15.9311ZM206.2 22.1637C202.992 22.1637 200.841 19.6707 200.841 15.9311C200.841 12.5032 203.083 9.94175 206.093 9.94175C209.324 9.94175 211.406 12.5184 211.254 16.2883H201.882C202.019 19.359 203.653 21.3124 206.215 21.3124C208.389 21.3124 209.894 20.0583 210.296 17.9453H211.307C210.836 20.5219 208.883 22.1637 206.215 22.1637H206.2ZM206.093 10.7474C203.737 10.7474 202.034 12.6552 201.898 15.4827H210.175C210.015 12.5184 208.495 10.7474 206.093 10.7474Z" fill="#F5F5F6"/>
<path id="Vector_2" d="M25.888 8.34558L16.5163 0.10641C16.4327 0.0380035 16.3339 0 16.2275 0H7.56271C7.15987 0 6.96985 0.501647 7.27388 0.775272L9.49329 2.72865C9.71371 2.92627 9.6833 3.27591 9.44008 3.43552L0.205219 9.26526C0.0760071 9.34887 0 9.48568 0 9.6377V21.32C0 21.4492 0.053205 21.5708 0.152014 21.6544L9.52369 29.886C9.6073 29.9544 9.70611 29.9924 9.81252 29.9924H18.4773C18.8802 29.9924 19.0702 29.4907 18.7662 29.2171L16.5467 27.2637C16.3263 27.0661 16.3567 26.7165 16.6 26.5569L25.8272 20.7119C25.9564 20.6283 26.0324 20.4915 26.0324 20.3395V8.65721C26.0324 8.528 25.9792 8.40638 25.8804 8.32278L25.888 8.34558ZM15.7183 19.2754C15.5891 19.359 15.5131 19.4958 15.5131 19.6478V25.4016C15.5131 25.7816 15.0646 25.9792 14.7834 25.736L2.98708 15.3686L10.3142 10.7322C10.4434 10.6486 10.5194 10.5118 10.5194 10.3598V4.60603C10.5194 4.22599 10.9678 4.02838 11.2491 4.2716L23.0454 14.6314L15.7183 19.2678V19.2754Z" fill="#A79DEE"/>
</g>
<defs>
<clipPath id="clip0_2201_1605">
<rect width="211.292" height="30" fill="white"/>
</clipPath>
</defs>
</svg>
